Coordinates
nRows=449
nColumns=2
inDegrees=yes
endheader
time	ankle_angle_r	
1.29738	 18.705942	
1.33065	 18.706967	
1.36391	 18.709757	
1.39718	 18.710633	
1.43044	 18.710850	
1.46371	 18.713452	
1.49698	 18.716051	
1.53024	 18.718468	
1.56351	 18.722769	
1.59677	 18.726060	
1.63004	 18.724756	
1.66331	 18.720974	
1.69657	 18.719876	
1.72984	 18.722720	
1.7631	 18.724568	
1.79637	 18.722607	
1.82964	 18.722974	
1.8629	 18.729828	
1.89617	 18.736769	
1.92944	 18.739054	
1.9627	 18.739842	
1.99597	 18.741134	
2.02923	 18.741085	
2.0625	 18.737738	
2.09577	 18.731963	
2.12903	 18.726595	
2.1623	 18.720382	
2.19556	 18.710932	
2.22883	 18.703765	
2.2621	 18.705590	
2.29536	 18.712597	
2.32863	 18.716423	
2.3619	 18.714228	
2.39516	 18.704667	
2.42843	 18.684374	
2.46169	 18.656223	
2.49496	 18.632537	
2.52823	 18.625388	
2.56149	 18.636594	
2.59476	 18.658203	
2.62802	 18.682223	
2.66129	 18.703609	
2.69456	 18.717048	
2.72782	 18.722576	
2.76109	 18.725573	
2.79435	 18.727710	
2.82762	 18.729034	
2.86089	 18.730417	
2.89415	 18.729835	
2.92742	 18.726663	
2.96069	 18.722951	
2.99395	 18.718553	
3.02722	 18.714786	
3.06048	 18.714697	
3.09375	 18.717204	
3.12702	 18.721288	
3.16028	 18.727834	
3.19355	 18.734011	
3.22681	 18.735880	
3.26008	 18.732095	
3.29335	 18.724481	
3.32661	 18.718654	
3.35988	 18.717005	
3.39315	 18.716426	
3.42641	 18.716528	
3.45968	 18.718386	
3.49294	 18.719575	
3.52621	 18.717908	
3.55948	 18.713477	
3.59274	 18.708333	
3.62601	 18.701818	
3.65927	 18.683346	
3.69254	 18.647342	
3.72581	 18.610716	
3.75907	 18.594439	
3.79234	 18.601183	
3.8256	 18.619381	
3.85887	 18.635018	
3.89214	 18.642442	
3.9254	 18.647354	
3.95867	 18.652820	
3.99194	 18.652129	
4.0252	 18.641438	
4.05847	 18.626795	
4.09173	 18.619026	
4.125	 18.623498	
4.15827	 18.632806	
4.19153	 18.637975	
4.2248	 18.638066	
4.25806	 18.633158	
4.29133	 18.624208	
4.3246	 18.618205	
4.35786	 18.623013	
4.39113	 18.637601	
4.4244	 18.648998	
4.45766	 18.643759	
4.49093	 18.624848	
4.52419	 18.610751	
4.55746	 18.612087	
4.59073	 18.617389	
4.62399	 18.614423	
4.65726	 18.612197	
4.69052	 18.625336	
4.72379	 18.648483	
4.75706	 18.659341	
4.79032	 18.647297	
4.82359	 18.626481	
4.85685	 18.611111	
4.89012	 18.598412	
4.92339	 18.585349	
4.95665	 18.579455	
4.98992	 18.588027	
5.02319	 18.608531	
5.05645	 18.629444	
5.08972	 18.640791	
5.12298	 18.641823	
5.15625	 18.635783	
5.18952	 18.629482	
5.22278	 18.630897	
5.25605	 18.634531	
5.28931	 18.629695	
5.32258	 18.619945	
5.35585	 18.615526	
5.38911	 18.622871	
5.42238	 18.640018	
5.45565	 18.653598	
5.48891	 18.657298	
5.52218	 18.662571	
5.55544	 18.675613	
5.58871	 18.683777	
5.62198	 18.675457	
5.65524	 18.658418	
5.68851	 18.649899	
5.72177	 18.655463	
5.75504	 18.662382	
5.78831	 18.655310	
5.82157	 18.635124	
5.85484	 18.615834	
5.8881	 18.610857	
5.92137	 18.624524	
5.95464	 18.646748	
5.9879	 18.660833	
6.02117	 18.662430	
6.05444	 18.662437	
6.0877	 18.666910	
6.12097	 18.665687	
6.15423	 18.652393	
6.1875	 18.641636	
6.22077	 18.649489	
6.25403	 18.671575	
6.2873	 18.691663	
6.32056	 18.697154	
6.35383	 18.687423	
6.3871	 18.676423	
6.42036	 18.675535	
6.45363	 18.681012	
6.4869	 18.687828	
6.52016	 18.691362	
6.55343	 18.679622	
6.58669	 18.650754	
6.61996	 18.625193	
6.65323	 18.624002	
6.68649	 18.644835	
6.71976	 18.667770	
6.75302	 18.678753	
6.78629	 18.679167	
6.81956	 18.677955	
6.85282	 18.679697	
6.88609	 18.680386	
6.91935	 18.675722	
6.95262	 18.669378	
6.98589	 18.672698	
7.01915	 18.691963	
7.05242	 18.715011	
7.08569	 18.725230	
7.11895	 18.722176	
7.15222	 18.716150	
7.18548	 18.715617	
7.21875	 18.720929	
7.25202	 18.724733	
7.28528	 18.724471	
7.31855	 18.725101	
7.35181	 18.727520	
7.38508	 18.729794	
7.41835	 18.732775	
7.45161	 18.735667	
7.48488	 18.736038	
7.51815	 18.733271	
7.55141	 18.727570	
7.58468	 18.721302	
7.61794	 18.718397	
7.65121	 18.719669	
7.68448	 18.723754	
7.71774	 18.728212	
7.75101	 18.729792	
7.78427	 18.729694	
7.81754	 18.730943	
7.85081	 18.731259	
7.88407	 18.728022	
7.91734	 18.723145	
7.9506	 18.719829	
7.98387	 18.719066	
8.01714	 18.715077	
8.0504	 18.700751	
8.08367	 18.682149	
8.11694	 18.671987	
8.1502	 18.669286	
8.18347	 18.662760	
8.21673	 18.653228	
8.25	 18.655318	
8.28327	 18.670817	
8.31653	 18.679832	
8.3498	 18.671869	
8.38306	 18.661770	
8.41633	 18.660624	
8.4496	 18.660803	
8.48286	 18.658122	
8.51613	 18.657900	
8.5494	 18.659059	
8.58266	 18.654928	
8.61593	 18.647207	
8.64919	 18.646192	
8.68246	 18.653861	
8.71573	 18.659494	
8.74899	 18.659646	
8.78226	 18.660051	
8.81552	 18.657472	
8.84879	 18.646754	
8.88206	 18.633269	
8.91532	 18.622429	
8.94859	 18.614664	
8.98185	 18.609297	
9.01512	 18.603038	
9.04839	 18.597488	
9.08165	 18.602059	
9.11492	 18.616037	
9.14819	 18.628606	
9.18145	 18.637845	
9.21472	 18.645308	
9.24798	 18.645268	
9.28125	 18.636586	
9.31452	 18.628041	
9.34778	 18.626685	
9.38105	 18.633508	
9.41431	 18.647360	
9.44758	 18.666156	
9.48085	 18.684027	
9.51411	 18.689648	
9.54738	 18.677110	
9.58065	 18.655435	
9.61391	 18.634989	
9.64718	 18.617457	
9.68044	 18.605047	
9.71371	 18.601383	
9.74698	 18.607749	
9.78024	 18.622127	
9.81351	 18.635058	
9.84677	 18.639627	
9.88004	 18.639582	
9.91331	 18.635698	
9.94657	 18.623789	
9.97984	 18.607584	
10.0131	 18.597538	
10.0464	 18.601621	
10.0796	 18.619230	
10.1129	 18.638991	
10.1462	 18.649035	
10.1794	 18.650514	
10.2127	 18.651257	
10.246	 18.652019	
10.2792	 18.649436	
10.3125	 18.644855	
10.3458	 18.644247	
10.379	 18.648949	
10.4123	 18.650351	
10.4456	 18.641273	
10.4788	 18.624905	
10.5121	 18.610196	
10.5454	 18.605291	
10.5786	 18.609456	
10.6119	 18.614728	
10.6452	 18.621298	
10.6784	 18.635467	
10.7117	 18.652685	
10.745	 18.661555	
10.7782	 18.659176	
10.8115	 18.653401	
10.8448	 18.652971	
10.878	 18.656013	
10.9113	 18.654497	
10.9446	 18.647101	
10.9778	 18.640342	
11.0111	 18.645238	
11.0444	 18.667860	
11.0776	 18.695252	
11.1109	 18.705202	
11.1442	 18.691147	
11.1774	 18.666409	
11.2107	 18.650582	
11.244	 18.654361	
11.2772	 18.670512	
11.3105	 18.683307	
11.3437	 18.685288	
11.377	 18.679736	
11.4103	 18.676667	
11.4435	 18.686622	
11.4768	 18.707797	
11.5101	 18.725910	
11.5433	 18.731975	
11.5766	 18.729736	
11.6099	 18.727237	
11.6431	 18.728974	
11.6764	 18.732327	
11.7097	 18.732933	
11.7429	 18.732843	
11.7762	 18.734488	
11.8095	 18.734845	
11.8427	 18.733628	
11.876	 18.734067	
11.9093	 18.735184	
11.9425	 18.734624	
11.9758	 18.731558	
12.0091	 18.725782	
12.0423	 18.722452	
12.0756	 18.727037	
12.1089	 18.734423	
12.1421	 18.737536	
12.1754	 18.737425	
12.2087	 18.735876	
12.2419	 18.732938	
12.2752	 18.731105	
12.3085	 18.732014	
12.3417	 18.735042	
12.375	 18.737830	
12.4083	 18.736341	
12.4415	 18.731375	
12.4748	 18.727439	
12.5081	 18.723452	
12.5413	 18.716971	
12.5746	 18.711015	
12.6079	 18.708266	
12.6411	 18.706968	
12.6744	 18.704284	
12.7077	 18.700132	
12.7409	 18.696694	
12.7742	 18.690985	
12.8075	 18.677166	
12.8407	 18.659848	
12.874	 18.647207	
12.9073	 18.638273	
12.9405	 18.628452	
12.9738	 18.615299	
13.0071	 18.604870	
13.0403	 18.607371	
13.0736	 18.616084	
13.1069	 18.617798	
13.1401	 18.617607	
13.1734	 18.622259	
13.2067	 18.623748	
13.2399	 18.617239	
13.2732	 18.611910	
13.3065	 18.617767	
13.3397	 18.630451	
13.373	 18.638503	
13.4062	 18.644289	
13.4395	 18.656950	
13.4728	 18.669365	
13.506	 18.669841	
13.5393	 18.664892	
13.5726	 18.665514	
13.6058	 18.667017	
13.6391	 18.657560	
13.6724	 18.636776	
13.7056	 18.620594	
13.7389	 18.620766	
13.7722	 18.622939	
13.8054	 18.608330	
13.8387	 18.587656	
13.872	 18.584152	
13.9052	 18.599340	
13.9385	 18.617255	
13.9718	 18.625498	
14.005	 18.624480	
14.0383	 18.622074	
14.0716	 18.618850	
14.1048	 18.609961	
14.1381	 18.601160	
14.1714	 18.603963	
14.2046	 18.620142	
14.2379	 18.641592	
14.2712	 18.657525	
14.3044	 18.663497	
14.3377	 18.664465	
14.371	 18.661866	
14.4042	 18.649729	
14.4375	 18.628467	
14.4708	 18.607214	
14.504	 18.594150	
14.5373	 18.591802	
14.5706	 18.597181	
14.6038	 18.606425	
14.6371	 18.616625	
14.6704	 18.621964	
14.7036	 18.619628	
14.7369	 18.616440	
14.7702	 18.618856	
14.8034	 18.623926	
14.8367	 18.626910	
14.87	 18.629614	
14.9032	 18.634654	
14.9365	 18.638884	
14.9698	 18.638323	
15.003	 18.633626	
15.0363	 18.628340	
15.0696	 18.626982	
15.1028	 18.634871	
15.1361	 18.650899	
15.1694	 18.662527	
15.2026	 18.660510	
15.2359	 18.650241	
15.2692	 18.640721	
15.3024	 18.635495	
15.3357	 18.634669	
15.369	 18.637291	
15.4022	 18.643926	
15.4355	 18.654222	
15.4687	 18.658986	
15.502	 18.646403	
15.5353	 18.621314	
15.5685	 18.607280	
15.6018	 18.620534	
15.6351	 18.646858	
15.6683	 18.659420	
15.7016	 18.655341	
15.7349	 18.651332	
15.7681	 18.653710	
15.8014	 18.658676	
15.8347	 18.664050	
15.8679	 18.668048	
15.9012	 18.672254	
15.9345	 18.679072	
15.9677	 18.684632	
16.001	 18.684623	
16.0343	 18.678667	
16.0675	 18.670902	
16.1008	 18.670102	
16.1341	 18.676970	
16.1673	 18.679775	
16.2006	 18.672997	
